@startuml map_class_push_CFD
title "【Map 設計変更後】"

class "Longitude"{
    -value : double
    +getValue() : double
    +updateGPS(cur_lat : double, cur_long : double) : double
}

class "Latitude"{
    -value : double
    +getValue() : double
    +updateGPS(cur_lat : double, cur_long : double) : double
}


class "MapLongitude"{
    -value : double
    +getValue() : double
    +updateLongitude(longitude : double) : double
}

class "MapLatitude"{
    -value : double
    +getValue() : double
    +updateLatitude(latitude : double) : void
}

class "Presenter"{
    +Presenter(...)
    +updateGPS(cur_lat : double, cur_long : double)
}

"Presenter" o--left-> "1" "Longitude" : longitude
"Presenter" o---> "1" "Latitude" : latitude
"Presenter" o--right-> "1" "MapLongitude" : mapLongitude
"Presenter" o---> "1" "MapLatitude" : mapLatitude

@enduml